<svg width="1137" height="946" viewBox="0 0 1137 946" fill="none" xmlns="http://www.w3.org/2000/svg">
<rect y="37" width="1080" height="720" fill="#EEEEEE"/>
<path d="M600.162 602.65C588.475 614.337 569.527 614.337 557.841 602.65C546.154 590.963 546.154 572.015 557.841 560.329L1080 38.1691L1047.67 155.147L600.162 602.65Z" fill="#823CC4"/>
<rect x="639" y="397.045" width="133" height="133" rx="15" transform="rotate(-45 639 397.045)" fill="#F2C94C"/>
<rect x="839" y="529.045" width="133" height="133" rx="15" transform="rotate(-45 839 529.045)" fill="#F2994A"/>
<path d="M681.379 218.607L669.607 230.379C663.749 236.237 663.749 245.735 669.607 251.593L1079.52 661.51L1079.52 595.538L702.593 218.607C696.735 212.749 687.237 212.749 681.379 218.607Z" fill="#BB6BD9"/>
<path d="M958.607 568.652C952.749 562.794 952.749 553.296 958.607 547.439L1031.44 474.607C1037.3 468.749 1046.79 468.749 1052.65 474.607L1080 501.955V614.136L1052.65 641.484C1046.79 647.342 1037.3 647.342 1031.44 641.484L958.607 568.652Z" fill="#6FCF97"/>
<path d="M672.39 268.502C668.838 272.029 663.103 272.019 659.564 268.479C655.995 264.91 656.02 259.115 659.62 255.577L882 37L905.5 37L672.39 268.502Z" fill="#2F80ED"/>
<path d="M865.652 206.484L938.484 133.652C944.342 127.794 944.342 118.296 938.484 112.439L863.09 37.0452H847L771.607 112.439C765.749 118.296 765.749 127.794 771.607 133.652L844.439 206.484C850.296 212.342 859.794 212.342 865.652 206.484Z" fill="#BB6BD9"/>
<path d="M543.143 422.459C540.911 424.691 537.292 424.691 535.059 422.459C532.827 420.227 532.827 416.607 535.059 414.375L912.347 37.087L928.515 37.087L543.143 422.459Z" fill="#EB5757"/>
<rect x="728.152" y="386.893" width="172.168" height="172.168" rx="15" transform="rotate(-45 728.152 386.893)" fill="#EB5757"/>
<path d="M665.764 576.236L487.5 754.5C486.814 755.185 486.814 756.297 487.5 756.982L865.241 756.982C865.927 756.297 865.927 755.185 865.241 754.5L686.977 576.236C681.119 570.378 671.622 570.378 665.764 576.236Z" fill="#2F80ED"/>
<path d="M1049.61 366.348C1043.75 360.49 1043.75 350.993 1049.61 345.135L1080 314.741V396.741L1049.61 366.348Z" fill="#EB5757"/>
<rect x="809" y="278.523" width="85.5919" height="85.5919" rx="15" transform="rotate(-45 809 278.523)" fill="#56CCF2"/>
<rect x="828" y="210.426" width="33.1291" height="33.1291" rx="3" transform="rotate(-45 828 210.426)" fill="#6FCF97"/>
<path d="M942.121 756.547C940.95 755.376 940.95 753.476 942.121 752.304L961.305 733.121C962.476 731.95 964.376 731.95 965.547 733.121L984.73 752.304C985.902 753.476 985.902 755.376 984.73 756.547L984.278 757L942.574 757L942.121 756.547Z" fill="#219653"/>
<rect x="607.854" y="369.572" width="138.977" height="33.1291" rx="10" transform="rotate(-45 607.854 369.572)" fill="#F2994A"/>
<rect x="551.715" y="495.557" width="153.523" height="33.1291" rx="10" transform="rotate(-45 551.715 495.557)" fill="#F2994A"/>
<path d="M1080 70.4258L1059.12 49.5471C1057.95 48.3756 1057.95 46.4761 1059.12 45.3045L1067.43 37H1080L1080 70.4258Z" fill="#6FCF97"/>
<path d="M1064.12 78.5472C1062.95 77.3756 1062.95 75.4761 1064.12 74.3045L1080 58.4258V94.4258L1064.12 78.5472Z" fill="#F2994A"/>
<rect x="925" y="255.426" width="33.1291" height="33.1291" rx="3" transform="rotate(-45 925 255.426)" fill="#F2994A"/>
<rect x="645" y="579.426" width="33.1291" height="33.1291" rx="3" transform="rotate(-45 645 579.426)" fill="#F2994A"/>
<rect x="791" y="717.426" width="33.1291" height="33.1291" rx="3" transform="rotate(-45 791 717.426)" fill="#F2994A"/>
<rect x="581" y="400.426" width="33.1291" height="77.9905" rx="9" transform="rotate(-45 581 400.426)" fill="#219653"/>
<rect x="953" y="416.426" width="33.1291" height="77.9905" rx="9" transform="rotate(-45 953 416.426)" fill="#F2C94C"/>
<rect x="956" y="445.426" width="33.1291" height="68.2812" rx="9" transform="rotate(-45 956 445.426)" fill="#9B51E0"/>
<rect x="827.282" y="198" width="33.1291" height="68.2812" rx="9" transform="rotate(45 827.282 198)" fill="#F2994A"/>
<rect x="949.517" y="629.943" width="33.1291" height="50.7828" rx="3" transform="rotate(-45 949.517 629.943)" fill="#F2C94C"/>
<path d="M1073.12 654.547C1071.95 653.376 1071.95 651.476 1073.12 650.304L1080 643.426V661.426L1073.12 654.547Z" fill="#56CCF2"/>
<rect x="972" y="670.426" width="33.1291" height="33.1291" rx="3" transform="rotate(-45 972 670.426)" fill="#56CCF2"/>
<rect x="930" y="197.578" width="70.1134" height="70.1134" rx="15" transform="rotate(-45 930 197.578)" fill="#2F80ED"/>
<path d="M1011.61 709.184C1005.75 703.326 1005.75 693.829 1011.61 687.971L1039.97 659.607C1045.83 653.749 1055.33 653.749 1061.18 659.607L1080 678.422V718.733L1061.18 737.549C1055.33 743.407 1045.83 743.407 1039.97 737.549L1011.61 709.184Z" fill="#EB5757"/>
<rect x="959" y="148.578" width="70.1134" height="70.1134" rx="15" transform="rotate(-45 959 148.578)" fill="#6FCF97"/>
<path d="M1037.61 121.975C1031.75 116.118 1031.75 106.62 1037.61 100.762L1046.76 91.6066C1052.62 85.7487 1062.12 85.7487 1067.98 91.6066L1080 103.631V164.369L1037.61 121.975Z" fill="#EB5757"/>
<path d="M1011.61 407.975C1005.75 402.118 1005.75 392.62 1011.61 386.762L1020.76 377.607C1026.62 371.749 1036.12 371.749 1041.98 377.607L1080 415.631L1080 476.369L1011.61 407.975Z" fill="#2F80ED"/>
<rect x="659.084" y="443" width="393.349" height="11.4325" rx="5.71623" transform="rotate(45 659.084 443)" fill="#F2C94C"/>
<path d="M767.007 525.29C761.149 519.432 761.149 509.935 767.007 504.077L769.477 501.607C775.335 495.749 784.833 495.749 790.691 501.607L1046.08 757L998.717 757L767.007 525.29Z" fill="#9B51E0"/>
<path d="M574.271 439.239C569.624 434.593 569.624 427.059 574.271 422.413C578.917 417.767 586.45 417.767 591.097 422.413L925.684 757L892.031 757L574.271 439.239Z" fill="#56CCF2"/>
<rect x="733.213" y="286.639" width="55.4554" height="55.4554" rx="5" transform="rotate(-45 733.213 286.639)" fill="#27AE60"/>
<path d="M901.678 198.297C895.82 204.155 886.322 204.155 880.464 198.297L865.607 183.439C859.749 177.581 859.749 168.083 865.607 162.226L990.832 37L1062.97 37L901.678 198.297Z" fill="#F2C94C"/>
<path d="M778.322 239.273C774.765 242.83 768.998 242.83 765.441 239.273C761.884 235.716 761.884 229.949 765.441 226.392L954.832 37L980.594 37L778.322 239.273Z" fill="#2F80ED"/>
<path d="M986.322 385.273C982.765 388.83 976.998 388.83 973.441 385.273C969.884 381.716 969.884 375.949 973.441 372.392L1080 265.832L1080 291.594L986.322 385.273Z" fill="#F2994A"/>
<path d="M824.928 498.884C819.07 504.742 809.573 504.742 803.715 498.884L782.607 477.776C776.749 471.918 776.749 462.42 782.607 456.563L1080 159.169L1080 243.812L824.928 498.884Z" fill="#2D9CDB"/>
</svg>