<svg id="Capa_1" enable-background="new 0 0 512 512" height="512" viewBox="0 0 512 512" width="512" xmlns="http://www.w3.org/2000/svg"><g><g><path d="m132.86 169.456s-29.184-39.317-28.36-95.397c0 0 16.5 3.927 31.063 0 28.544-7.697 56.629-64.326 106.111-65.976s59.077 21.442 59.077 21.442 18.203-10.82 45.384-7.147c40.685 5.498 76.422 67.48 40.1 152.627" fill="#e5907b"/><path d="m341.139 135.727c-17.663-16.295-37.326-44.484-45.224-56.257-1.814-2.703-5.661-2.955-7.86-.554-39.844 43.518-91.456 58.02-114.551 62.531-7.036 1.375-12.1 7.547-12.1 14.716v46.586c0 52.244 42.352 94.596 94.596 94.596 52.244 0 94.596-42.352 94.596-94.596v-45.16c0-8.28-3.371-16.248-9.457-21.862z" fill="#fdd4bb"/><path d="m256 279.346c-52.244 0-94.596-42.352-94.596-94.596v18c0 52.244 42.352 94.596 94.596 94.596 52.244 0 94.596-42.352 94.596-94.596v-18c0 52.243-42.352 94.596-94.596 94.596z" fill="#f7c4a8"/><path d="m161.404 202.75v-33.408c-4.205-2.312-9.035-3.631-14.173-3.631-16.27 0-29.46 13.19-29.46 29.46s13.19 29.46 29.46 29.46c5.798 0 11.2-1.682 15.758-4.574-1.037-5.611-1.585-11.395-1.585-17.307z" fill="#ebbaa1"/><path d="m350.596 202.75v-33.408c4.205-2.312 9.034-3.631 14.173-3.631 16.27 0 29.46 13.19 29.46 29.46s-13.19 29.46-29.46 29.46c-5.798 0-11.2-1.682-15.758-4.574 1.038-5.611 1.585-11.395 1.585-17.307z" fill="#ebbaa1"/><path d="m147.231 206.631c-13.131 0-24.25-8.592-28.054-20.46-.91 2.838-1.406 5.86-1.406 9 0 16.27 13.19 29.46 29.46 29.46 5.798 0 11.2-1.682 15.758-4.574-1.024-5.537-1.566-11.242-1.58-17.072-4.207 2.318-9.035 3.646-14.178 3.646z" fill="#e8a990"/><path d="m364.769 206.631c-5.143 0-9.971-1.328-14.178-3.646-.014 5.83-.556 11.535-1.58 17.072 4.558 2.892 9.96 4.574 15.758 4.574 16.27 0 29.46-13.19 29.46-29.46 0-3.14-.496-6.162-1.406-9-3.804 11.868-14.924 20.46-28.054 20.46z" fill="#e8a990"/><path d="m300.304 286.343c-13.218 7.02-28.295 11.003-44.304 11.003-16.009 0-31.087-3.983-44.304-11.003-63.834 13.363-111.777 69.965-111.777 137.77v79.887h312.163v-79.888c-.001-67.804-47.943-124.405-111.778-137.769z" fill="#b3e59f"/><path d="m99.919 486h312.163v18h-312.163z" fill="#95d6a4"/><path d="m256 297.346c-16.129 0-31.313-4.041-44.601-11.159-.091 1.163-.151 2.334-.151 3.521 0 24.716 20.036 44.751 44.751 44.751s44.751-20.036 44.751-44.751c0-1.186-.06-2.358-.151-3.521-13.287 7.118-28.47 11.159-44.599 11.159z" fill="#ebbaa1"/><path d="m254.509 469.407-46.104 34.593h-99.756l98.549-71.916s-18.882-25.88-6.084-38.677 30.698 6.977 30.698 6.977 18.698-30.977 52.465-24.837c45.112 8.202 49.859 93.86-29.768 93.86z" fill="#fdd4bb"/><path d="m340.363 458.367h71.719v45.633h-71.719z" fill="#fdd4bb"/><path d="m256 217.065c-16.885 0-30.573 13.688-30.573 30.573h61.146c0-16.885-13.688-30.573-30.573-30.573z" fill="#f4594e"/><path d="m99.919 458.367v45.633h8.73l62.532-45.633z" fill="#ebbaa1"/><path d="m340.363 486h71.719v18h-71.719z" fill="#f7c4a8"/><path d="m133.315 486-24.667 18h99.757l23.99-18z" fill="#f7c4a8"/><path d="m99.919 486v18h8.729l24.667-18z" fill="#e8a990"/></g><g><g><path d="m109.984 195.055c0 20.423 16.615 37.038 37.038 37.038 3.597 0 7.144-.527 10.548-1.539 6.044 21.289 18.828 39.769 35.885 52.987-35.944 11.99-66.041 37.318-84.104 71.346-1.947 3.67-.551 8.223 3.117 10.171 1.124.596 2.331.88 3.52.88 2.694 0 5.299-1.452 6.651-3.997 17.2-32.404 46.533-56.026 81.388-65.918 3.101 25.933 25.219 46.109 51.974 46.109 26.754 0 48.871-20.176 51.973-46.109 19.795 5.64 38.121 15.851 53.442 29.859 1.443 1.319 3.26 1.97 5.073 1.97 2.038 0 4.069-.824 5.553-2.447 2.803-3.065 2.59-7.823-.476-10.626-15.375-14.057-33.477-24.664-53.045-31.22 17.069-13.22 29.863-31.707 35.91-53.007 3.404 1.012 6.951 1.539 10.549 1.539 20.423 0 37.038-16.615 37.038-37.038 0-7.992-2.553-15.395-6.874-21.453 18.549-46.046 18.635-90.842.093-123.48-11.407-20.08-28.873-33.074-47.92-35.648-20.013-2.704-35.652 1.786-43.9 5.106-2.14-2.489-5.204-5.384-9.49-8.163-12.73-8.255-30.404-12.066-52.53-11.328-18.351.612-35.598 7.851-54.277 22.782-3.245 2.593-3.773 7.327-1.179 10.571 2.592 3.245 7.327 3.774 10.572 1.179 16.019-12.804 30.44-18.999 45.386-19.497 41.435-1.391 51.352 15.672 52.027 16.939.77 2.052 2.354 3.498 4.421 4.252 2.098.76 4.376.379 6.303-.741.163-.094 16.599-9.443 40.653-6.192 14.354 1.939 27.787 12.207 36.855 28.17 7.533 13.26 22 49.189 1.04 105.273-5.383-3.055-11.598-4.809-18.217-4.809-2.246 0-4.482.213-6.679.616v-1.232c0-10.461-4.337-20.46-11.897-27.434-17.168-15.838-36.604-43.758-44.164-55.025-2.151-3.207-5.592-5.213-9.441-5.504-3.864-.28-7.599 1.189-10.227 4.06-38.979 42.572-90.378 56.386-110.668 60.349-10.547 2.061-18.202 11.367-18.202 22.127v2.661c-2.198-.403-4.433-.616-6.678-.616-4.043 0-7.932.66-11.577 1.863-6.77-11.059-21.973-39.829-23.591-77.369 6.809.694 16.369.907 25.436-1.539 13.151-3.545 25.474-15.297 37.39-26.662 3.007-2.867 3.119-7.628.253-10.634-2.866-3.007-7.627-3.118-10.634-.253-10.555 10.066-21.469 20.475-30.924 23.024-12.5 3.371-27.291-.024-27.425-.055-2.218-.526-4.559-.021-6.36 1.381-1.801 1.401-2.869 3.544-2.902 5.825-.668 45.489 17.283 80.138 25.697 93.831-7.606 6.79-12.404 16.657-12.404 27.627zm248.316 7.593v-28.548c2.15-.683 4.406-1.04 6.679-1.04 12.128 0 21.995 9.867 21.995 21.995s-9.867 21.995-21.995 21.995c-2.581 0-5.118-.454-7.512-1.325.549-4.283.833-8.647.833-13.077zm-102.299 124.441c-17.651 0-32.467-12.322-36.327-28.812 11.295 4.305 23.539 6.671 36.327 6.671s25.031-2.366 36.326-6.67c-3.86 16.49-18.677 28.811-36.326 28.811zm-87.257-171.117c0-3.582 2.542-6.678 6.043-7.362 21.385-4.177 75.024-18.585 116.738-62.656 8.836 12.992 27.586 39.301 44.678 55.07 4.483 4.135 7.053 10.104 7.053 16.377v45.247c0 48.113-39.143 87.256-87.256 87.256-48.114 0-87.257-39.143-87.257-87.256v-46.676zm-21.722 17.088c2.273 0 4.529.357 6.678 1.04v28.548c0 4.43.284 8.794.833 13.077-2.393.871-4.931 1.325-7.511 1.325-12.128 0-21.995-9.867-21.995-21.995s9.867-21.995 21.995-21.995z"/><path d="m217.847 247.623c0 4.154 3.367 7.522 7.522 7.522h61.264c4.155 0 7.522-3.367 7.522-7.522 0-21.038-17.116-38.154-38.154-38.154s-38.154 17.116-38.154 38.154zm38.154-23.11c10.111 0 18.727 6.527 21.854 15.589h-43.708c3.127-9.063 11.742-15.589 21.854-15.589z"/><path d="m196.876 194.31c1.382 2.454 3.933 3.834 6.562 3.833 1.25 0 2.516-.311 3.682-.968l19.386-10.911c2.41-1.356 3.881-3.926 3.831-6.691-.051-2.766-1.614-5.28-4.072-6.548l-19.386-10.002c-3.689-1.904-8.227-.456-10.133 3.236-1.905 3.691-.456 8.228 3.236 10.133l6.988 3.606-7.229 4.068c-3.619 2.037-4.902 6.624-2.865 10.244z"/><path d="m285.493 186.264 19.386 10.911c1.166.656 2.433.968 3.682.968 2.629 0 5.181-1.38 6.562-3.833 2.037-3.62.754-8.206-2.866-10.244l-7.229-4.068 6.988-3.606c3.692-1.905 5.141-6.441 3.236-10.133-1.906-3.693-6.442-5.14-10.133-3.236l-19.386 10.002c-2.458 1.268-4.021 3.782-4.072 6.548-.049 2.765 1.422 5.335 3.832 6.691z"/><path d="m393.679 340.132c-2.359-3.418-7.046-4.276-10.464-1.916s-4.276 7.045-1.916 10.464c15.413 22.323 23.561 48.52 23.561 75.757v26.799h-56.814v-35.445c0-4.155-3.367-7.522-7.522-7.522-4.154 0-7.522 3.367-7.522 7.522v42.966 38.2h-102.131l26.182-19.644c19.646-.442 36.23-6.023 48.084-16.208 10.894-9.36 17.611-22.482 18.916-36.946 2.468-27.374-14.03-51.355-38.376-55.782-27.769-5.049-46.437 11.222-55.002 21.217-4.779-3.635-11.642-7.57-19.125-7.756-5.976-.138-11.45 2.104-15.859 6.515-11.532 11.531-5.864 29.784 1.248 42.177l-17.941 13.093v-27.833c0-4.155-3.367-7.522-7.522-7.522s-7.522 3.367-7.522 7.522v35.445h-56.814v-26.799c0-12.228 1.651-24.34 4.909-36 1.117-4.001-1.22-8.15-5.221-9.268-4-1.117-8.15 1.22-9.268 5.221-3.625 12.978-5.463 26.451-5.463 40.047v34.32 45.721c0 4.155 3.367 7.522 7.522 7.522h312.764c4.155 0 7.522-3.367 7.522-7.522v-80.042c-.001-30.303-9.069-59.456-26.226-84.303zm-286.539 126.147h40.812l-40.812 29.782zm24.292 30.678 42.726-31.18c1.262-.483 2.361-1.291 3.191-2.328l34.189-24.949c3.355-2.448 4.091-7.153 1.642-10.51-.041-.057-4.222-5.878-6.917-12.846-2.047-5.293-3.697-12.391.065-16.152 1.501-1.503 2.996-2.157 4.826-2.115 5.786.127 12.984 6.593 15.035 8.833 1.589 1.756 3.916 2.645 6.28 2.43 2.359-.219 4.484-1.548 5.723-3.568.666-1.085 16.633-26.514 44.795-21.395 18.953 3.447 27.585 22.991 26.085 39.631-2.626 29.116-29.907 39.49-54.563 39.49-1.628 0-3.212.528-4.514 1.505l-44.187 33.154zm273.428 0h-56.814v-30.678h56.814z"/><path d="m335.089 384.829c1.213.729 2.548 1.075 3.867 1.075 2.553 0 5.043-1.301 6.454-3.648l11.814-19.66c1.396-2.324 1.434-5.219.099-7.578-1.334-2.359-3.835-3.818-6.546-3.818h-7.232l6.08-10.147c2.135-3.563.977-8.183-2.586-10.318-3.561-2.135-8.183-.978-10.318 2.586l-12.902 21.535c-1.393 2.324-1.428 5.216-.092 7.574 1.336 2.357 3.835 3.814 6.544 3.814h7.211l-4.966 8.264c-2.139 3.56-.987 8.181 2.573 10.321z"/><path d="m175.835 378.119c1.213.729 2.548 1.075 3.868 1.075 2.553 0 5.043-1.301 6.454-3.648l11.814-19.661c1.397-2.324 1.434-5.219.099-7.578s-3.835-3.818-6.546-3.818h-7.231l6.079-10.146c2.135-3.563.977-8.183-2.587-10.318-3.561-2.134-8.183-.977-10.318 2.587l-12.902 21.534c-1.393 2.323-1.428 5.216-.092 7.573s3.835 3.814 6.544 3.814h7.211l-4.966 8.265c-2.139 3.56-.987 8.181 2.573 10.321z"/></g></g></g></svg>