<svg id="Capa_1" enable-background="new 0 0 512 512" height="512" viewBox="0 0 512 512" width="512" xmlns="http://www.w3.org/2000/svg"><g><g><ellipse cx="256" cy="228.084" fill="#ffddce" rx="248.5" ry="153.13"/><path d="m256 381.214c-108.65 0-202.73-62.31-248.5-153.13 45.77-90.82 139.85-153.13 248.5-153.13-70.28 0-181.12 224.36 0 306.26z" fill="#ffcbbe"/><path d="m7.5 228.084c45.77 60.51 139.85 102.02 248.5 102.02 25.05 0 49.32-2.21 72.41-6.35 77.05-13.8 140.87-49.11 176.09-95.67-34.58-45.72-96.74-80.59-171.92-94.9-2.5-.48-5.02-.94-7.55-1.37-.01 0-.01 0-.02 0-22.07-3.75-45.19-5.75-69.01-5.75-108.65 0-202.73 41.51-248.5 102.02z" fill="#f8f6f9"/><path d="m183.59 323.754c-77.05-13.8-140.87-49.11-176.09-95.67 34.58-45.72 96.74-80.59 171.92-94.9-37.67 12.55-105.83 108.93 4.15 190.56.01 0 .01.01.02.01z" fill="#dddaec"/><circle cx="256" cy="209.888" fill="#c0e3a0" r="83.82"/><path d="m281.28 289.828c-7.98 2.52-16.47 3.88-25.28 3.88-46.29 0-83.82-37.52-83.82-83.82 0-46.29 37.53-83.82 83.82-83.82 8.81 0 17.3 1.36 25.28 3.88-33.95 10.72-58.55 42.46-58.55 79.94 0 37.49 24.6 69.23 58.55 79.94z" fill="#a8d4a4"/><circle cx="256" cy="209.888" fill="#545058" r="37.286"/><path d="m230.757 347.45-37.124-37.124-37.124 37.124c-20.503 20.503-20.503 53.745 0 74.248 20.503 20.503 53.745 20.503 74.248 0 20.503-20.503 20.503-53.745 0-74.248z" fill="#bed8fb"/><path d="m193.634 437.075c-13.435 0-26.872-5.126-37.124-15.378-20.502-20.502-20.502-53.745 0-74.246l37.124-37.124-17.834 37.124c-9.852 20.502-9.852 53.745 0 74.246 4.924 10.252 11.379 15.378 17.834 15.378z" fill="#9dc6fb"/></g><g><path d="m511.197 224.707c-23.45-46.533-59.197-85.813-103.374-113.596-45.417-28.561-97.917-43.658-151.823-43.658s-106.405 15.097-151.823 43.659c-44.177 27.782-79.924 67.063-103.375 113.595-1.069 2.123-1.07 4.627 0 6.75 20.816 41.317 51.776 77.392 89.533 104.322 3.371 2.405 8.055 1.621 10.461-1.751 2.405-3.372 1.622-8.056-1.75-10.461-18.165-12.957-34.648-28.162-49.077-45.098 30.657 21.507 68.521 38.102 110.619 48.145.006.001.012.003.017.004 1.653.394 3.316.775 4.982 1.149l-14.38 14.38c-2.416 2.416-4.568 4.996-6.485 7.692-7.136-3.225-14.204-6.784-21.078-10.645-3.612-2.031-8.184-.746-10.212 2.866s-.745 8.184 2.866 10.212c6.959 3.909 14.106 7.537 21.328 10.832-8.181 21.437-3.665 46.651 13.581 63.897 11.697 11.697 27.062 17.546 42.427 17.546s30.729-5.849 42.427-17.546c10.652-10.652 16.437-24.346 17.389-38.311.851.007 1.702.023 2.551.023 53.908 0 106.407-15.096 151.823-43.655 44.178-27.782 79.925-67.064 103.374-113.601 1.07-2.122 1.07-4.627-.001-6.75zm-399.034-100.898c43.022-27.055 92.76-41.356 143.837-41.356s100.815 14.301 143.838 41.356c23.505 14.782 44.484 33.004 62.304 53.943-16.448-11.556-35.039-21.746-55.414-30.282-45.13-18.906-97.251-28.9-150.729-28.9s-105.598 9.994-150.728 28.9c-20.371 8.534-38.963 18.722-55.409 30.275 17.82-20.935 38.798-39.155 62.301-53.936zm54.837 188.892-17.987-27.27 15.793-21.65c2.441-3.346 1.708-8.038-1.639-10.479s-8.038-1.707-10.479 1.639l-12.491 17.124-11.103-16.833c-2.281-3.458-6.934-4.413-10.39-2.131-3.458 2.281-4.412 6.933-2.131 10.39l28.699 43.51c-34.557-10.235-65.456-25.157-90.697-43.665l11.213-17.967 21.644 11.327c1.11.581 2.299.856 3.471.856 2.702 0 5.312-1.464 6.651-4.024 1.92-3.67.502-8.202-3.167-10.123l-20.635-10.799 4.898-7.849c2.193-3.514 1.122-8.14-2.392-10.333-3.515-2.193-8.141-1.122-10.333 2.392l-23.221 37.209c-9.621-8.096-18.231-16.767-25.675-25.944 22.038-27.162 54.419-50.177 94.041-66.775 7.73-3.238 15.685-6.192 23.818-8.879l4.696 15.943c.962 3.266 3.951 5.383 7.191 5.383.702 0 1.415-.099 2.123-.308 3.973-1.17 6.246-5.34 5.075-9.313l-4.738-16.087c16.545-4.688 33.743-8.276 51.372-10.699-19.512 14.933-32.852 37.541-35.457 63.276l-55.302-12.424c-4.043-.912-8.054 1.632-8.961 5.673-.908 4.042 1.632 8.054 5.673 8.961l14.408 3.237-12.878 13.54c-2.854 3.001-2.736 7.749.266 10.604 1.452 1.38 3.311 2.065 5.168 2.065 1.982 0 3.961-.781 5.436-2.331l19.066-20.046 26.863 6.035c3.127 47.542 42.794 85.267 91.114 85.267s87.988-37.725 91.115-85.267l26.863-6.035 19.066 20.046c1.475 1.55 3.453 2.331 5.436 2.331 1.856 0 3.717-.685 5.168-2.065 3.001-2.855 3.12-7.602.266-10.604l-12.879-13.541 14.408-3.237c4.042-.908 6.582-4.92 5.674-8.961-.907-4.041-4.919-6.583-8.961-5.673l-55.316 12.428c-.751-7.466-2.394-14.77-4.95-21.803-1.414-3.893-5.712-5.904-9.61-4.487-3.894 1.415-5.902 5.717-4.487 9.61 3.005 8.271 4.529 16.998 4.529 25.938 0 42.083-34.237 76.32-76.32 76.32s-76.32-34.237-76.32-76.32c0-42.078 34.237-76.31 76.32-76.31 22.376 0 43.547 9.774 58.084 26.817 2.688 3.151 7.421 3.528 10.573.839 3.151-2.688 3.527-7.422.839-10.573-4.235-4.965-8.945-9.411-14.028-13.302 17.604 2.423 34.777 6.008 51.3 10.69l-4.738 16.088c-1.17 3.973 1.103 8.143 5.075 9.313.707.208 1.421.308 2.122.308 3.241 0 6.229-2.117 7.191-5.383l4.695-15.942c8.133 2.688 16.089 5.641 23.819 8.879 39.621 16.599 72.003 39.613 94.04 66.775-7.422 9.149-16.023 17.826-25.673 25.948l-23.223-37.213c-2.193-3.515-6.819-4.584-10.333-2.392-3.514 2.193-4.585 6.819-2.392 10.333l4.898 7.849-20.636 10.799c-3.67 1.92-5.088 6.453-3.168 10.123 1.34 2.56 3.95 4.024 6.651 4.024 1.172 0 2.361-.275 3.472-.856l21.645-11.328 11.222 17.982c-16.486 12.086-35.474 22.704-56.503 31.515-10.992 4.605-22.426 8.654-34.206 12.14l28.701-43.513c2.28-3.458 1.326-8.109-2.131-10.39-3.459-2.28-8.11-1.327-10.391 2.131l-11.103 16.833-12.491-17.123c-2.442-3.347-7.135-4.081-10.479-1.639-3.347 2.441-4.08 7.133-1.64 10.479l15.793 21.65-17.968 27.241c-28.436 6.529-58.476 9.927-89.018 9.927-13.888 0-27.864-.713-41.588-2.103l-15.475-15.475c-2.929-2.93-7.678-2.929-10.606 0l-10.079 10.079c-3.788-.749-7.54-1.548-11.256-2.402zm58.454 103.694c-8.5 8.5-19.8 13.181-31.82 13.181-12.021 0-23.321-4.681-31.821-13.181-17.546-17.546-17.546-46.096 0-63.642l31.821-31.82 31.82 31.82c17.545 17.546 17.545 46.096 0 63.642zm174.384-84.035c-43.021 27.053-92.759 41.353-143.838 41.353-1.129 0-2.261-.017-3.393-.031-2.118-11.56-7.626-22.615-16.547-31.536l-5.298-5.298c8.398.494 16.834.752 25.238.752 53.479 0 105.6-9.994 150.729-28.901 20.367-8.533 38.958-18.716 55.401-30.268-17.817 20.934-38.792 39.151-62.292 53.929z"/><path d="m256 165.102c-24.695 0-44.786 20.091-44.786 44.786s20.091 44.786 44.786 44.786 44.786-20.091 44.786-44.786-20.091-44.786-44.786-44.786zm0 74.572c-16.424 0-29.786-13.362-29.786-29.786s13.362-29.786 29.786-29.786 29.786 13.362 29.786 29.786-13.362 29.786-29.786 29.786z"/></g></g></svg>