<svg id="Capa_1" enable-background="new 0 0 512 512" height="512" viewBox="0 0 512 512" width="512" xmlns="http://www.w3.org/2000/svg"><g><path d="m362.741 98.899c3.582-10.011 2.915-21.469-2.818-31.399-5.733-9.929-15.323-16.237-25.783-18.14-1.903-10.461-8.21-20.05-18.14-25.783-9.929-5.733-21.388-6.4-31.399-2.818-6.878-8.108-17.136-13.259-28.601-13.259s-21.723 5.151-28.601 13.259c-10.011-3.582-21.469-2.915-31.399 2.818-9.929 5.733-16.237 15.323-18.14 25.783-10.461 1.903-20.05 8.21-25.783 18.14s-6.4 21.388-2.818 31.399c-8.108 6.878-13.259 17.136-13.259 28.601v90h240v-90c0-11.465-5.151-21.723-13.259-28.601z" fill="#fef77d"/><path d="m441.073 358.49-110.073-33.99 143.5 180h30v-60c0-40.455-26.693-74.675-63.427-86.01z" fill="#ffad84"/><path d="m422.04 358.49-91.04-33.99h-150l-110.073 33.99c-36.734 11.335-63.427 45.554-63.427 86.01v60h75l15-30 15 30h287l15-30 15 30h45v-60c0-40.456-22.078-74.675-52.46-86.01z" fill="#ffd4a1"/><g fill="#ffad84"><path d="m414.5 459.5c-8.284 0-15 6.716-15 15v30h30v-30c0-8.284-6.716-15-15-15z"/><path d="m97.5 459.5c-8.284 0-15 6.716-15 15v30h30v-30c0-8.284-6.716-15-15-15z"/><path d="m128.5 232.5c-20.711 0-37.5 16.79-37.5 37.5 0 20.711 16.789 37.5 37.5 37.5h127.5v-75z"/></g><path d="m383.5 232.5h-127.5v75h127.5c20.711 0 37.5-16.789 37.5-37.5 0-20.71-16.789-37.5-37.5-37.5z" fill="#fe8566"/><path d="m256 97.5v330c66.274 0 120-53.726 120-120v-90c0-66.274-53.726-120-120-120z" fill="#ffad84"/><path d="m256 97.5c-66.274 0-120 53.726-120 120v90c0 66.274 53.726 120 120 120 49.706 0 90-53.726 90-120v-90c0-66.274-40.294-120-90-120z" fill="#ffd4a1"/><path d="m177.86 100.64c1.903 10.461 8.21 20.051 18.14 25.783s21.388 6.4 31.399 2.818c6.879 8.108 17.136 13.259 28.601 13.259s21.723-5.151 28.601-13.259c10.011 3.582 21.469 2.915 31.399-2.818s16.237-15.323 18.14-25.783l-78.14-30z" fill="#fef77d"/><path d="m256 277.5c-24.853 0-45 20.147-45 45l.004.622c.059 4.34 1.474 8.201 3.779 11.316h82.434c2.305-3.115 3.72-6.976 3.779-11.316l.004-.622c0-24.853-20.147-45-45-45z" fill="#ff3a33"/><path d="m256 307.5c-18.427 0-34.258 11.081-41.217 26.939 5.198 7.025 14.939 10.239 23.979 6.484 5.309-2.205 11.131-3.423 17.238-3.423s11.93 1.218 17.238 3.423c9.039 3.755 18.781.541 23.979-6.484-6.959-15.858-22.79-26.939-41.217-26.939z" fill="#fe5e49"/><path d="m436 7.5h38.5v77h-38.5z" fill="#e1e1e3"/><path d="m474.5 37.5-30 83.5 30 83.5h30v-167z" fill="#a4a6aa"/><path d="m474.5 37.5h-68.5v167h68.5v-30l-23.5-53.5 23.5-53.5z" fill="#c2c4c6"/><path d="m436 174.5h38.5v-30l-19.25-30-19.25 30z" fill="#f4de48"/><path d="m436 67.5h38.5v77h-38.5z" fill="#414851"/><path d="m443.285 351.323-62.18-19.201c1.098-5.587 1.829-11.303 2.168-17.123h.227c24.813 0 45-20.187 45-45s-20.187-45-45-45v-97.5c0-11.557-4.421-22.56-12.272-30.875 2.643-11.127.969-22.868-4.81-32.875-5.777-10.009-15.108-17.328-26.066-20.603-3.274-10.958-10.594-20.288-20.602-26.066-10.01-5.779-21.748-7.452-32.875-4.809-8.314-7.85-19.318-12.271-30.875-12.271s-22.561 4.42-30.875 12.272c-11.129-2.642-22.866-.969-32.875 4.809-10.008 5.778-17.327 15.108-20.602 26.066-10.958 3.275-20.289 10.594-26.066 20.602-5.778 10.008-7.452 21.748-4.81 32.875-7.852 8.315-12.272 19.318-12.272 30.875v97.501c-24.813 0-45 20.187-45 45s20.187 45 45 45h.227c.339 5.82 1.071 11.536 2.168 17.123l-62.179 19.2c-19.486 6.013-36.987 18.356-49.278 34.753-12.716 16.965-19.438 37.167-19.438 58.424v60c0 4.142 3.357 7.5 7.5 7.5h497c4.143 0 7.5-3.358 7.5-7.5v-60c0-21.257-6.722-41.459-19.438-58.424-12.291-16.397-29.791-28.74-49.277-34.753zm-299.785-223.823c0-8.821 3.867-17.161 10.611-22.882 2.381-2.021 3.261-5.305 2.209-8.246-2.979-8.327-2.158-17.483 2.252-25.123 4.41-7.639 11.93-12.928 20.631-14.511 3.072-.559 5.477-2.964 6.036-6.036 1.583-8.701 6.872-16.221 14.511-20.631s16.797-5.23 25.122-2.251c2.941 1.053 6.226.172 8.245-2.209 5.722-6.743 14.062-10.611 22.883-10.611s17.161 3.868 22.883 10.611c2.019 2.381 5.304 3.262 8.245 2.209 8.326-2.979 17.483-2.158 25.122 2.251 7.639 4.41 12.928 11.93 14.511 20.631.56 3.072 2.964 5.477 6.036 6.036 8.701 1.583 16.221 6.872 20.631 14.512 4.41 7.638 5.231 16.794 2.252 25.122-1.052 2.941-.172 6.226 2.209 8.246 6.744 5.721 10.611 14.061 10.611 22.882v30.086c-9.299-17.455-22.641-32.777-39.274-44.466-3.084-2.167-7.301-1.708-9.847 1.075-2.081 2.275-4.479 4.204-7.129 5.733-7.64 4.411-16.796 5.231-25.121 2.251-2.941-1.052-6.226-.172-8.246 2.209-5.722 6.744-14.063 10.612-22.883 10.612s-17.161-3.868-22.883-10.611c-2.021-2.382-5.305-3.261-8.246-2.209-8.322 2.979-17.481 2.159-25.122-2.252-2.648-1.529-5.047-3.458-7.128-5.733-2.545-2.783-6.761-3.243-9.847-1.075-16.634 11.689-29.975 27.011-39.274 44.466zm-45 142.5c0-16.542 13.458-30 30-30v7.5c0 4.142 3.357 7.5 7.5 7.5s7.5-3.358 7.5-7.5v-30c0-34.576 15.983-67.22 43.041-88.495 1.798 1.449 3.705 2.756 5.709 3.913 10.009 5.778 21.744 7.451 32.875 4.809 8.314 7.852 19.318 12.273 30.875 12.273s22.56-4.421 30.875-12.273c11.127 2.644 22.867.969 32.874-4.809 2.005-1.157 3.912-2.465 5.71-3.914 27.058 21.276 43.041 53.92 43.041 88.496v30c0 4.142 3.357 7.5 7.5 7.5s7.5-3.358 7.5-7.5v-7.5c16.542 0 30 13.458 30 30s-13.458 30-30 30v-7.5c0-4.142-3.357-7.5-7.5-7.5s-7.5 3.358-7.5 7.5v15c0 62.033-50.468 112.5-112.5 112.5s-112.5-50.467-112.5-112.5v-15c0-4.142-3.357-7.5-7.5-7.5s-7.5 3.358-7.5 7.5v7.5c-16.542 0-30-13.458-30-30zm398.5 227h-90v-22.5c0-4.136 3.364-7.5 7.5-7.5 4.143 0 7.5-3.358 7.5-7.5s-3.357-7.5-7.5-7.5c-12.406 0-22.5 10.093-22.5 22.5v22.5h-272v-22.5c0-12.407-10.094-22.5-22.5-22.5-4.143 0-7.5 3.358-7.5 7.5s3.357 7.5 7.5 7.5c4.136 0 7.5 3.364 7.5 7.5v22.5h-90v-52.5c0-36.428 23.364-68.113 58.141-78.845l61.52-18.997c16.563 51.204 64.692 88.342 121.339 88.342s104.776-37.138 121.34-88.342l61.521 18.997c34.775 10.732 58.139 42.417 58.139 78.845z"/><path d="m308.5 262.5c16.542 0 30-13.458 30-30 0-4.142-3.357-7.5-7.5-7.5s-7.5 3.358-7.5 7.5c0 8.271-6.729 15-15 15s-15-6.729-15-15c0-4.142-3.357-7.5-7.5-7.5s-7.5 3.358-7.5 7.5c0 16.542 13.458 30 30 30z"/><path d="m203.5 262.5c16.542 0 30-13.458 30-30 0-4.142-3.357-7.5-7.5-7.5s-7.5 3.358-7.5 7.5c0 8.271-6.729 15-15 15s-15-6.729-15-15c0-4.142-3.357-7.5-7.5-7.5s-7.5 3.358-7.5 7.5c0 16.542 13.458 30 30 30z"/><path d="m203.5 322.547.005.678c.122 8.983 4.676 17.293 12.18 22.229 4.577 3.01 9.866 4.545 15.205 4.545 3.63 0 7.283-.71 10.749-2.15 4.551-1.891 9.382-2.849 14.361-2.849s9.81.958 14.361 2.849c8.562 3.555 18.264 2.662 25.954-2.396 7.504-4.936 12.058-13.246 12.181-22.284l.004-.669c0-28.949-23.552-52.5-52.5-52.5s-52.5 23.551-52.5 52.547zm52.5-37.547c20.678 0 37.5 16.822 37.5 37.453l-.003.567c-.056 4.061-2.032 7.67-5.424 9.9-3.527 2.319-7.999 2.72-11.958 1.076-6.385-2.651-13.152-3.996-20.115-3.996s-13.73 1.345-20.115 3.997c-3.959 1.646-8.431 1.244-11.958-1.076-3.392-2.23-5.368-5.839-5.423-9.845l-.004-.576c0-20.678 16.822-37.5 37.5-37.5z"/><path d="m504.5 30h-22.5v-22.5c0-4.142-3.357-7.5-7.5-7.5h-38.5c-4.143 0-7.5 3.358-7.5 7.5v22.5h-22.5c-4.143 0-7.5 3.358-7.5 7.5v167c0 4.142 3.357 7.5 7.5 7.5h98.5c4.143 0 7.5-3.358 7.5-7.5v-167c0-4.142-3.357-7.5-7.5-7.5zm-61-15h23.5v15h-23.5zm53.5 182h-83.5v-152h83.5z"/><path d="m436 182h38.5c4.143 0 7.5-3.358 7.5-7.5v-107c0-4.142-3.357-7.5-7.5-7.5h-38.5c-4.143 0-7.5 3.358-7.5 7.5v107c0 4.142 3.357 7.5 7.5 7.5zm7.5-15v-15h23.5v15zm23.5-92v62h-23.5v-62z"/></g></svg>