<svg id="Capa_1" enable-background="new 0 0 512 512" height="512" viewBox="0 0 512 512" width="512" xmlns="http://www.w3.org/2000/svg"><g><g><path d="m431.849 367.019c-19.584-37.181-54.577-63.825-95.629-72.813l-35.916-7.863c-13.218 7.02-28.295 11.003-44.304 11.003-16.009 0-31.086-3.983-44.304-11.003l-35.916 7.863c-41.051 8.987-76.044 35.632-95.628 72.813l-72.152 136.981h73.918l38.119-69.483v69.483h271.925v-69.483l38.119 69.483h73.919z" fill="#fdd4bb"/><g fill="#f7c4a8"><path d="m17.481 486-9.481 18h73.918l9.875-18z"/><path d="m120.037 486h271.925v18h-271.925z"/><path d="m420.206 486 9.875 18h73.919l-9.481-18z"/></g><path d="m132.86 169.456s-29.184-39.317-28.36-95.396c0 0 16.5 3.927 31.063 0 28.544-7.697 56.629-64.326 106.11-65.976s59.077 21.442 59.077 21.442 18.203-10.82 45.384-7.147c40.685 5.498 76.421 67.48 40.1 152.627" fill="#565e75"/><path d="m341.139 135.727c-17.663-16.294-37.326-44.484-45.224-56.256-1.814-2.703-5.662-2.955-7.86-.554-39.844 43.518-91.456 58.02-114.551 62.531-7.036 1.374-12.1 7.547-12.1 14.716v46.586c0 52.244 42.352 94.596 94.596 94.596 52.244 0 94.596-42.352 94.596-94.596v-45.16c0-8.281-3.371-16.249-9.457-21.863z" fill="#fdd4bb"/><path d="m256 279.346c-52.244 0-94.596-42.352-94.596-94.596v18c0 52.244 42.352 94.596 94.596 94.596 52.244 0 94.596-42.352 94.596-94.596v-18c0 52.243-42.352 94.596-94.596 94.596z" fill="#f7c4a8"/><path d="m161.404 202.75v-33.408c-4.205-2.312-9.035-3.631-14.173-3.631-16.27 0-29.46 13.19-29.46 29.46s13.19 29.46 29.46 29.46c5.798 0 11.2-1.682 15.758-4.574-1.038-5.611-1.585-11.395-1.585-17.307z" fill="#ebbaa1"/><path d="m350.596 202.75v-33.408c4.205-2.312 9.035-3.631 14.173-3.631 16.27 0 29.46 13.19 29.46 29.46s-13.19 29.46-29.46 29.46c-5.798 0-11.2-1.682-15.758-4.574 1.037-5.611 1.585-11.395 1.585-17.307z" fill="#ebbaa1"/><path d="m147.231 206.631c-13.131 0-24.25-8.592-28.054-20.46-.91 2.838-1.406 5.86-1.406 9 0 16.27 13.19 29.46 29.46 29.46 5.798 0 11.2-1.682 15.758-4.574-1.024-5.537-1.565-11.242-1.58-17.072-4.207 2.318-9.035 3.646-14.178 3.646z" fill="#e8a990"/><path d="m364.769 206.631c-5.143 0-9.971-1.328-14.178-3.646-.014 5.83-.556 11.535-1.58 17.072 4.558 2.892 9.96 4.574 15.758 4.574 16.27 0 29.46-13.19 29.46-29.46 0-3.14-.496-6.162-1.406-9-3.804 11.868-14.924 20.46-28.054 20.46z" fill="#e8a990"/><path d="m227.216 353.321v85.059c0 4.066-2.63 7.665-6.504 8.9l-51.895 16.549c-6.079 1.939-12.262-2.646-12.181-9.026.37-28.886 6.839-97.527 59.044-110.569 5.866-1.464 11.536 3.042 11.536 9.087z" fill="#f4594e"/><path d="m284.784 353.321v85.059c0 4.066 2.63 7.665 6.504 8.9l51.895 16.549c6.079 1.939 12.263-2.646 12.181-9.026-.37-28.886-6.839-97.527-59.044-110.569-5.866-1.464-11.536 3.042-11.536 9.087z" fill="#f4594e"/><g fill="#e84642"><path d="m220.712 429.281-51.895 16.549c-4.879 1.556-9.816-1.094-11.537-5.497-.414 5.445-.591 10.361-.643 14.471-.082 6.38 6.101 10.965 12.181 9.026l51.895-16.549c3.874-1.235 6.504-4.835 6.504-8.9v-18c-.001 4.065-2.631 7.664-6.505 8.9z"/><path d="m343.182 445.83-51.895-16.549c-3.874-1.235-6.504-4.835-6.504-8.9v18c0 4.066 2.63 7.665 6.504 8.9l51.895 16.549c6.079 1.939 12.262-2.646 12.181-9.026-.053-4.11-.229-9.026-.643-14.471-1.721 4.404-6.659 7.053-11.538 5.497z"/></g></g><g><path d="m234.51 250.573c4.154 0 7.522-3.367 7.522-7.522 0-7.702 6.266-13.968 13.968-13.968s13.968 6.266 13.968 13.968c0 4.154 3.367 7.522 7.522 7.522s7.522-3.367 7.522-7.522c0-15.997-13.014-29.011-29.011-29.011s-29.012 13.014-29.012 29.011c-.001 4.155 3.367 7.522 7.521 7.522z"/><path d="m196.876 194.31c1.381 2.453 3.933 3.834 6.561 3.833 1.249 0 2.516-.311 3.682-.968l19.386-10.911c2.41-1.356 3.881-3.926 3.831-6.691-.05-2.766-1.614-5.28-4.071-6.548l-19.386-10.002c-3.693-1.905-8.228-.455-10.133 3.236s-.456 8.228 3.235 10.133l6.989 3.606-7.229 4.068c-3.62 2.037-4.902 6.624-2.865 10.244z"/><path d="m285.493 186.264 19.387 10.911c1.166.656 2.433.968 3.682.968 2.629 0 5.181-1.38 6.562-3.833 2.037-3.621.754-8.206-2.866-10.244l-7.23-4.068 6.989-3.606c3.692-1.905 5.141-6.441 3.236-10.133-1.906-3.693-6.443-5.14-10.133-3.236l-19.387 10.002c-2.458 1.268-4.021 3.782-4.072 6.548-.049 2.765 1.422 5.335 3.832 6.691z"/><path d="m289.071 454.816 51.994 16.581c1.673.534 3.398.794 5.117.794 3.579 0 7.121-1.134 10.057-3.308 4.349-3.22 6.906-8.376 6.836-13.792-.394-30.701-7.501-103.654-64.857-117.983-5.035-1.258-10.285-.142-14.393 3.066-4.137 3.23-6.509 8.091-6.509 13.334v11.703c-4.478-1.706-9.108-2.869-13.796-3.463v-32.392c0-4.155-3.367-7.522-7.522-7.522-4.154 0-7.522 3.367-7.522 7.522v32.392c-4.688.594-9.318 1.758-13.796 3.463v-11.704c0-5.244-2.373-10.104-6.509-13.334-4.108-3.208-9.355-4.326-14.393-3.066-57.356 14.329-64.463 87.283-64.856 117.983-.07 5.415 2.485 10.57 6.835 13.791 2.937 2.175 6.48 3.31 10.059 3.31 1.718 0 3.445-.262 5.117-.795l51.995-16.581c7.029-2.242 11.753-8.706 11.753-16.083v-57.019c13.306-7.196 29.328-7.197 42.635 0v57.019c.001 7.378 4.725 13.842 11.755 16.084zm3.29-101.307c0-.793.454-1.266.725-1.478.24-.188.6-.382 1.062-.382.134 0 .276.017.426.054 47.204 11.793 53.112 76.366 53.462 103.581.01.784-.401 1.253-.746 1.509-.346.255-.911.506-1.652.271l-51.995-16.581c-.766-.244-1.281-.948-1.281-1.751v-85.223zm-72.722 85.224c0 .803-.515 1.507-1.28 1.751l-51.995 16.581c-.743.237-1.308-.018-1.652-.272-.345-.256-.755-.725-.745-1.508.349-27.215 6.255-91.789 53.46-103.581.15-.037.292-.054.426-.054.461 0 .822.194 1.062.382.271.212.725.685.725 1.478v85.223z"/><path d="m511.133 500.973-58.296-110.677c-1.935-3.674-6.482-5.085-10.16-3.15-3.676 1.936-5.086 6.484-3.15 10.16l52.488 99.65h-57.145l-36.05-65.712c-1.651-3.01-5.13-4.519-8.462-3.669-3.327.853-5.654 3.852-5.654 7.287v62.095h-168.453c-4.154 0-7.522 3.367-7.522 7.522s3.368 7.522 7.522 7.522h175.974c4.155 0 7.522-3.367 7.522-7.522v-40.267l24.076 43.885c1.32 2.407 3.848 3.904 6.594 3.904h74.061c2.635 0 5.078-1.379 6.44-3.635 1.362-2.257 1.443-5.061.215-7.393z"/><path d="m186.193 496.957h-58.897v-62.095c0-3.435-2.327-6.434-5.655-7.287-3.329-.852-6.81.658-8.462 3.669l-36.049 65.713h-57.145l66.482-126.219c18.631-35.37 51.714-60.56 90.767-69.11l33.399-7.313c13.68 6.798 29.083 10.632 45.367 10.632s31.687-3.834 45.367-10.632l33.4 7.313c39.053 8.55 72.135 33.74 90.766 69.11 1.347 2.557 3.959 4.018 6.662 4.018 1.181 0 2.381-.28 3.498-.869 3.676-1.936 5.086-6.484 3.15-10.16-20.702-39.304-57.464-67.294-100.859-76.794l-18.593-4.071c16.629-13.17 29.098-31.376 35.04-52.308 3.403 1.011 6.951 1.539 10.547 1.539 20.423 0 37.038-16.615 37.038-37.038 0-7.992-2.553-15.395-6.874-21.453 18.549-46.046 18.635-90.842.093-123.479-11.407-20.08-28.873-33.074-47.92-35.647-20.012-2.704-35.651 1.786-43.899 5.107-2.14-2.489-5.204-5.384-9.491-8.163-12.728-8.254-30.402-12.065-52.53-11.328-18.352.612-35.599 7.852-54.278 22.782-3.245 2.593-3.773 7.327-1.179 10.571 2.593 3.246 7.327 3.772 10.572 1.179 16.018-12.804 30.44-18.999 45.386-19.497 41.456-1.391 51.352 15.672 52.027 16.94.77 2.051 2.354 3.497 4.421 4.25 2.099.763 4.376.379 6.303-.741.164-.095 16.599-9.446 40.652-6.192 14.354 1.939 27.787 12.207 36.855 28.17 7.533 13.26 22 49.189 1.04 105.273-5.383-3.055-11.598-4.809-18.217-4.809-2.245 0-4.481.213-6.678.615v-1.231c0-10.46-4.337-20.459-11.897-27.434h-.001c-17.169-15.838-36.605-43.758-44.165-55.026-2.151-3.207-5.591-5.213-9.439-5.504-3.875-.28-7.6 1.189-10.229 4.06-38.979 42.572-90.378 56.386-110.667 60.348-10.548 2.061-18.203 11.367-18.203 22.127v2.66c-2.197-.403-4.433-.615-6.678-.615-4.043 0-7.933.66-11.578 1.863-6.77-11.059-21.973-39.829-23.591-77.37 6.809.694 16.368.907 25.437-1.539 13.151-3.545 25.474-15.297 37.39-26.662 3.006-2.867 3.119-7.628.252-10.634-2.868-3.007-7.628-3.118-10.635-.253-10.555 10.066-21.469 20.475-30.924 23.024-12.497 3.37-27.288-.024-27.424-.055-2.222-.529-4.56-.021-6.36 1.381-1.801 1.4-2.869 3.543-2.902 5.825-.669 45.489 17.283 80.139 25.697 93.832-7.603 6.788-12.401 16.654-12.401 27.624 0 20.423 16.616 37.038 37.039 37.038 3.597 0 7.144-.527 10.547-1.539 5.943 20.932 18.411 39.139 35.041 52.308l-18.593 4.071c-43.395 9.5-80.157 37.491-100.859 76.794l-72.289 137.247c-1.228 2.332-1.146 5.136.215 7.391 1.362 2.257 3.805 3.636 6.44 3.636h74.061c2.746 0 5.273-1.496 6.595-3.904l24.076-43.886v40.268c0 4.155 3.368 7.522 7.522 7.522h66.418c4.154 0 7.522-3.367 7.522-7.522-.001-4.154-3.369-7.521-7.523-7.521zm172.107-294.309v-28.548c2.149-.683 4.405-1.04 6.678-1.04 12.128 0 21.995 9.867 21.995 21.995s-9.867 21.995-21.995 21.995c-2.58 0-5.118-.453-7.511-1.325.55-4.283.833-8.647.833-13.077zm-211.279 14.402c-12.128 0-21.995-9.867-21.995-21.995s9.867-21.995 21.995-21.995c2.273 0 4.529.356 6.678 1.04v28.548c0 4.43.284 8.794.833 13.077-2.393.871-4.93 1.325-7.511 1.325zm21.722-14.402v-46.676c0-3.582 2.542-6.678 6.044-7.362 21.384-4.177 75.025-18.586 116.737-62.656 8.836 12.992 27.586 39.302 44.68 55.07h-.001c4.484 4.136 7.055 10.105 7.055 16.377v45.247c0 48.113-39.143 87.256-87.257 87.256-48.115 0-87.258-39.143-87.258-87.256z"/></g></g></svg>